PathFileType	4	(X/Y/Z)	C:\Users\WrightLab\Desktop\Jo\P5V116.trc
DataRate	CameraRate	NumFrames	NumMarkers	Units	OrigDataRate	OrigDataStartFrame	OrigNumFrames
100.00	100.00	       10	19	mm	100.00	308	       492
Frame#	Time	Headset_Front			Headset_Back			Headset_Left			Headset_Right			Left_Shoulder			Right_Shoulder			Sternum			C7			Left Elbow			Right Elbow			Left Wrist			Right Wrist			Left ASIS			Right ASIS			S2			Left Knee			Right Knee			Left Ankle			Right Ankle			
		X1	Y1	Z1	X2	Y2	Z2	X3	Y3	Z3	X4	Y4	Z4	X5	Y5	Z5	X6	Y6	Z6	X7	Y7	Z7	X8	Y8	Z8	X9	Y9	Z9	X10	Y10	Z10	X11	Y11	Z11	X12	Y12	Z12	X13	Y13	Z13	X14	Y14	Z14	X15	Y15	Z15	X16	Y16	Z16	X17	Y17	Z17	X18	Y18	Z18	X19	Y19	Z19	

308	3.070	183.77917	1599.32642	1297.41479	207.88206	1806.39221	1060.05029				86.07349	1647.84058	1191.53125	440.86588	1536.81641	1018.94977	34.95081	1485.52380	1091.80127	248.22337	1364.70313	1153.71948	208.99852	1549.23279	937.40588	529.46655	1269.52014	955.66986	-41.41479	1209.82935	1030.20496	481.52316	1190.64099	1157.92957	42.80551	1074.69873	1211.75464	406.42947	979.07538	1152.77710	116.01469	981.39087	1155.83020	292.52295	1002.51318	862.97260	495.83844	574.44287	1169.72681	134.88867	514.87219	1128.68347	504.19083	195.30455	1024.49182	251.27910	130.48332	927.16882	
309	3.080	183.17091	1599.13477	1305.84485	209.46869	1806.52307	1069.14087				86.63693	1648.33081	1199.19080	443.01666	1536.56958	1029.76978	36.68218	1485.45691	1098.05981	248.44218	1364.33630	1161.69165	211.79292	1549.52637	945.80847	531.92438	1268.93726	966.73169	-39.87126	1210.53943	1035.90918	482.32361	1189.71570	1168.15369	42.53860	1075.15942	1218.78406	406.51196	978.86322	1161.86572	116.44791	981.46173	1160.82385	296.83755	1003.27863	871.99768	493.19348	574.15002	1181.10413	135.01840	514.88464	1131.64038	514.23987	186.90736	1055.64172	251.47256	131.01393	927.97015	
310	3.090	183.19624	1598.69946	1314.23779	211.51447	1806.46277	1078.19702				86.16956	1648.79114	1207.10632	444.52921	1536.14709	1040.29419	37.49639	1486.26416	1104.63416	248.93839	1364.10352	1170.41357	214.11490	1549.59448	954.61646	533.63391	1269.26563	977.84485	-38.03348	1210.77551	1041.81555	482.94464	1189.41443	1178.39185	41.86769	1075.59448	1225.24768	406.09064	978.08459	1170.81714	116.42398	981.27106	1166.06445	300.26031	1004.12109	881.21326	490.40930	572.63086	1191.32776	134.01076	513.66620	1134.84753	523.20599	180.06761	1087.05579	251.56541	131.38422	928.21783	
311	3.100	182.39330	1598.35425	1322.70251	213.14406	1806.42456	1087.32153				87.43915	1648.26697	1215.03613	445.68375	1535.63037	1051.66418	38.85459	1486.12427	1110.97534	248.81471	1363.54028	1179.15417	217.17267	1549.33093	963.15851	536.17566	1268.72119	988.92804	-36.36463	1210.98779	1047.33630	482.97229	1189.32397	1189.43127	41.85436	1075.65601	1231.49158	406.46817	977.38977	1180.45459	116.97306	980.97314	1170.93787	304.70346	1004.34851	890.90411	487.83786	571.51251	1201.66479	134.59885	512.38403	1136.71399	530.41083	173.66707	1120.38501	251.69888	132.46382	928.69135	
312	3.110	181.95718	1597.69946	1331.19702	214.59616	1806.36096	1096.55469				87.49393	1648.63330	1222.86755	447.27936	1535.27734	1061.90479	39.67072	1486.41382	1117.91833	248.01776	1363.24438	1187.53333				537.70349	1268.19141	999.92798	-34.86384	1211.67859	1052.46545	483.31470	1188.92285	1199.95728	40.98111	1076.08984	1238.07056	406.96664	977.12811	1189.23877	117.51505	980.83044	1176.37134	308.28610	1005.02411	900.51630	485.47919	569.96552	1210.71411	133.83411	512.48218	1139.89563	536.52057	167.96190	1152.97681	251.81410	132.94478	928.88232	
313	3.120	181.68719	1596.81970	1339.81384	216.46919	1806.11011	1105.75330				88.02979	1648.01575	1230.95227	448.93634	1535.61707	1073.50793	40.39888	1486.70740	1125.07764	248.53221	1362.62207	1196.53662	221.55371	1549.17810	981.05450	539.23804	1268.22766	1010.39124	-32.66488	1211.85596	1057.82166	483.92572	1188.29602	1210.45300	40.23597	1076.07886	1244.35840	405.97610	976.25177	1198.17419	117.72684	980.84521	1181.67053	311.92365	1004.95599	909.97144	482.53625	568.26813	1218.76306	133.42747	511.01889	1141.94055	539.67847	163.23822	1185.50684	251.97815	133.73581	929.23517	
314	3.130	180.76007	1594.97949	1344.89014	217.61856	1806.05566	1114.96521				87.85009	1648.13940	1238.93066	449.83649	1534.71375	1083.78723	41.24581	1487.06750	1131.55408	248.26625	1362.24756	1205.04712	223.98590	1549.09460	989.73413	541.37079	1268.06079	1022.32721	-31.28393	1212.50134	1063.08154	483.84116	1188.09375	1221.52234	39.56662	1076.11035	1250.19409	406.59235	975.89465	1207.55078	118.07130	980.00598	1187.38550	315.30460	1004.99506	919.61597	480.86304	566.11743	1226.64111	133.79552	509.82288	1143.68188	541.89227	159.70239	1217.87903	251.84694	134.82433	930.02570	
315	3.140	179.54504	1594.94165	1354.58997	219.59123	1805.30212	1124.15674				88.13321	1647.69409	1247.01855	451.12558	1534.32666	1095.17932	41.04691	1487.42041	1139.64026	248.63541	1361.52026	1213.47046	225.65585	1549.12378	998.65833	543.00452	1267.97766	1034.21558	-29.42353	1212.64844	1068.03784	484.23190	1187.24353	1231.77844	38.55674	1075.97766	1256.61023	406.06497	974.64508	1215.83521	118.45178	979.50085	1193.02075	318.26785	1004.62299	928.36804	478.78860	564.65118	1233.75879	134.80345	509.59711	1145.31531	541.91919	158.09138	1249.94812	251.93008	135.44612	930.39642	
316	3.150	179.10062	1594.15137	1362.32568	220.41580	1805.05762	1133.32556				88.74834	1647.08374	1254.96558	452.43915	1533.85352	1105.67615	41.68966	1487.61450	1146.59167	248.75052	1360.89478	1223.06885	227.92448	1548.81287	1007.82074	544.82465	1267.17407	1044.15930	-27.53512	1212.62415	1073.47632	483.86169	1187.19141	1242.97717	37.48418	1075.85242	1262.90454	405.38684	973.43585	1224.83447	118.86137	979.36316	1198.92615	320.84268	1004.85767	937.37463	478.30530	562.52448	1239.88892	133.24738	508.90848	1148.28015	540.24152	155.91138	1280.24841	252.25967	136.33415	930.72766	
317	3.160	178.36758	1593.48145	1370.86719	221.66891	1804.59570	1142.38501				87.86301	1647.08960	1262.83533	453.74521	1533.24683	1117.05298	42.69175	1487.02527	1153.82129	248.80856	1360.07947	1231.39099	230.53358	1548.49292	1016.73450	546.53345	1266.92871	1055.82019	-26.07708	1212.56396	1078.18286	483.98315	1186.58179	1253.31458	36.72648	1075.27600	1268.33923	404.84375	972.79321	1233.48962	119.25175	978.87598	1205.26050	323.20053	1004.68042	945.89954	477.61932	559.96112	1245.82617	135.24255	507.57629	1149.22217	537.18292	155.24240	1310.04602	252.19609	138.19685	932.32043	
